<?xml version="1.0" standalone="no"?>
<!DOCTYPE svg PUBLIC "-//W3C//DTD SVG 20010904//EN"
 "http://www.w3.org/TR/2001/REC-SVG-20010904/DTD/svg10.dtd">
<svg version="1.0" xmlns="http://www.w3.org/2000/svg"
 width="260.000000pt" height="260.000000pt" viewBox="0 0 260.000000 260.000000"
 preserveAspectRatio="xMidYMid meet">
<metadata>
Created by potrace 1.11, written by Peter Selinger 2001-2013
</metadata>
<g transform="translate(0.000000,260.000000) scale(0.100000,-0.100000)"
fill="#000000" stroke="none">
<path d="M366 2397 c3 -10 9 -15 12 -12 3 3 0 11 -7 18 -10 9 -11 8 -5 -6z"/>
<path d="M490 2401 c0 -6 -8 -8 -17 -5 -17 5 -17 5 0 -6 9 -6 14 -16 11 -22
-4 -7 -2 -8 5 -4 6 4 9 11 6 16 -3 4 0 10 7 12 9 3 9 6 0 12 -7 4 -12 3 -12
-3z"/>
<path d="M586 2398 c3 -4 12 -8 20 -8 8 0 14 4 14 8 0 4 -9 8 -19 8 -11 0 -17
-4 -15 -8z"/>
<path d="M663 2394 c1 -22 24 -30 24 -8 0 7 -4 11 -8 8 -4 -2 -9 2 -12 8 -3 7
-5 4 -4 -8z"/>
<path d="M704 2381 c-15 -17 -33 -27 -38 -23 -6 4 -18 7 -26 7 -8 0 -20 4 -27
8 -6 4 -15 2 -19 -4 -5 -8 -3 -9 6 -4 9 5 11 4 6 -3 -5 -9 -13 -9 -27 -1 -12
6 -23 8 -26 5 -4 -3 -12 -1 -20 5 -10 9 -18 8 -31 -3 -19 -17 -46 -13 -35 5 3
7 -3 4 -14 -6 -14 -12 -23 -15 -28 -8 -7 12 -32 10 -54 -3 -9 -6 -12 -5 -8 1
12 19 -20 22 -44 5 -21 -15 -22 -14 -16 3 6 13 4 15 -5 8 -22 -17 -50 -24 -42
-11 5 7 3 8 -5 4 -7 -5 -10 -14 -7 -22 3 -7 1 -16 -4 -19 -6 -4 -10 -11 -10
-16 0 -6 3 -8 8 -6 8 6 8 -45 -1 -59 -3 -6 -2 -16 4 -24 5 -8 9 -19 8 -25 0
-5 -6 1 -14 15 -10 19 -11 28 -2 40 10 13 10 13 -6 1 -13 -11 -17 -11 -17 -1
0 8 -3 10 -6 7 -4 -4 0 -17 9 -30 8 -13 17 -32 19 -43 2 -10 8 -22 13 -26 6
-5 5 -8 -3 -8 -7 0 -11 -4 -7 -9 3 -5 1 -12 -4 -15 -5 -4 -13 -1 -17 5 -4 7
-3 9 3 6 5 -3 10 0 10 7 0 11 -4 12 -18 3 -13 -8 -15 -13 -6 -19 9 -6 8 -10
-3 -18 -11 -7 -6 -8 18 -5 28 3 32 1 21 -11 -9 -11 -9 -17 0 -28 8 -10 9 -16
1 -21 -6 -3 -7 -11 -4 -17 4 -7 2 -8 -5 -4 -6 4 -9 12 -6 17 10 15 -5 10 -23
-8 -16 -16 -16 -16 0 -10 12 4 19 0 23 -14 4 -11 11 -16 18 -13 9 5 9 4 0 -6
-6 -7 -9 -19 -6 -26 3 -8 0 -14 -7 -14 -6 0 -8 5 -5 10 3 6 2 10 -3 10 -5 0
-12 -9 -15 -19 -4 -15 -1 -18 12 -13 14 5 14 4 1 -13 -14 -17 -13 -18 2 -13
11 5 15 2 13 -10 -1 -9 3 -20 9 -24 8 -6 8 -8 -1 -8 -7 0 -10 -14 -7 -40 3
-26 1 -40 -7 -40 -6 0 -8 7 -5 16 4 9 1 23 -5 30 -9 11 -9 14 0 14 7 0 9 5 6
10 -3 6 -14 10 -23 10 -10 0 -13 -3 -7 -8 12 -8 18 -85 7 -78 -4 2 -9 -5 -9
-16 -2 -20 -1 -20 12 -2 7 11 16 16 20 12 4 -3 -3 -16 -14 -27 -12 -12 -17
-21 -11 -21 5 0 13 0 18 0 4 0 7 4 7 9 0 5 3 12 7 16 3 4 5 -1 4 -12 -2 -10 2
-21 8 -25 8 -6 8 -8 0 -8 -7 0 -10 -17 -9 -45 2 -26 -1 -42 -7 -39 -5 3 -7 13
-4 21 4 9 1 22 -5 29 -9 11 -9 14 0 14 7 0 9 5 6 10 -3 6 -14 10 -23 10 -10 0
-13 -3 -7 -8 14 -10 15 -65 1 -75 -7 -6 -5 -7 6 -4 9 3 19 -1 22 -9 4 -9 11
-12 18 -8 10 6 10 5 1 -7 -7 -9 -11 -25 -8 -38 2 -12 0 -19 -6 -16 -5 4 -7 10
-4 15 3 5 0 12 -6 16 -8 5 -8 9 1 14 9 5 9 9 1 14 -6 4 -11 2 -11 -4 0 -6 -6
-8 -12 -4 -7 4 -5 -2 5 -13 18 -21 18 -22 0 -33 -15 -10 -15 -11 -1 -6 11 3
19 -2 23 -15 4 -11 11 -16 18 -12 8 5 8 2 0 -9 -7 -8 -10 -18 -6 -22 4 -4 0
-4 -9 -1 -14 6 -16 1 -13 -24 3 -22 1 -29 -7 -25 -6 4 -8 3 -4 -4 3 -5 0 -13
-6 -15 -10 -4 -10 -6 0 -6 6 -1 12 -8 12 -17 0 -8 -4 -13 -8 -10 -4 2 -9 -5
-9 -16 -2 -20 -1 -20 12 -2 7 11 16 16 20 12 4 -3 -2 -15 -12 -25 -16 -16 -17
-21 -6 -32 8 -7 13 -8 14 -1 1 5 2 15 3 20 0 6 4 10 9 10 4 0 10 0 13 0 4 0 1
-7 -6 -15 -6 -8 -8 -20 -4 -26 4 -8 3 -9 -4 -5 -7 4 -12 3 -12 -3 0 -5 8 -15
18 -20 11 -7 12 -10 3 -11 -8 0 -11 -6 -7 -16 3 -8 2 -13 -3 -10 -12 8 -22
-20 -14 -41 5 -12 3 -14 -7 -8 -9 5 -11 4 -6 -3 4 -7 1 -12 -6 -12 -9 0 -9 -3
2 -10 13 -9 13 -11 0 -21 -13 -9 -13 -10 0 -6 8 2 16 10 16 18 1 8 3 19 4 24
2 6 3 17 4 25 1 8 6 13 11 10 6 -3 8 -9 6 -15 -2 -5 -4 -22 -5 -37 0 -14 -5
-24 -10 -21 -5 3 -6 0 -4 -8 3 -8 11 -13 18 -11 10 2 11 0 2 -11 -6 -7 -10
-23 -7 -36 2 -12 0 -19 -6 -16 -5 4 -7 10 -4 15 3 5 0 12 -6 16 -8 5 -8 9 1
14 9 5 9 9 1 14 -6 4 -11 2 -11 -4 0 -6 -6 -8 -12 -4 -7 4 -5 -2 5 -13 18 -21
18 -22 0 -33 -15 -10 -15 -11 -1 -6 11 3 19 -2 23 -15 4 -11 11 -16 18 -13 9
5 9 4 0 -6 -6 -7 -9 -19 -6 -26 3 -8 0 -14 -7 -14 -6 0 -8 5 -5 10 3 6 2 10
-3 10 -5 0 -12 -9 -15 -19 -4 -15 -1 -18 12 -13 14 5 14 4 1 -13 -14 -17 -13
-18 2 -13 11 5 15 2 13 -10 -1 -9 3 -20 9 -24 8 -6 8 -8 -1 -8 -7 0 -10 -14
-7 -40 3 -26 1 -40 -7 -40 -6 0 -8 7 -5 16 4 9 1 23 -5 30 -9 11 -9 14 0 14 7
0 9 5 6 10 -3 6 -14 10 -23 10 -10 0 -13 -3 -7 -8 12 -8 18 -85 7 -78 -4 2 -9
-5 -9 -16 -2 -20 -1 -20 12 -2 7 11 16 16 20 12 4 -3 -3 -16 -14 -27 -12 -12
-17 -21 -11 -21 5 0 13 0 18 0 4 0 7 4 7 9 0 5 3 12 7 16 3 4 5 -1 4 -12 -2
-10 2 -21 8 -25 8 -6 8 -8 0 -8 -7 0 -10 -17 -9 -45 2 -26 -1 -42 -7 -39 -5 3
-7 13 -4 21 4 9 1 22 -5 29 -9 11 -9 14 0 14 7 0 9 4 6 10 -3 6 -14 10 -23 10
-10 0 -13 -3 -7 -8 14 -10 15 -65 1 -75 -7 -6 -5 -7 6 -3 11 3 19 -2 24 -17
12 -34 12 -67 1 -60 -6 4 -8 -1 -4 -11 4 -10 7 -20 7 -22 0 -3 6 -2 12 2 10 5
10 4 1 -6 -6 -7 -9 -18 -7 -25 3 -7 1 -16 -5 -20 -6 -3 -11 -11 -11 -16 0 -6
4 -8 9 -4 5 3 13 0 17 -6 5 -8 3 -9 -5 -4 -16 9 -12 -55 4 -68 6 -5 3 -7 -8
-3 -9 3 -17 1 -17 -5 0 -6 -4 -8 -9 -4 -5 3 -13 0 -17 -7 -4 -7 -4 -10 1 -6 4
4 15 2 23 -5 13 -10 14 -9 7 2 -5 9 -4 12 3 8 5 -4 9 -15 7 -25 -1 -9 2 -23 8
-29 6 -9 6 -13 -2 -13 -13 0 -10 -22 4 -32 6 -5 4 -12 -5 -19 -11 -8 -12 -12
-2 -16 6 -2 9 -10 5 -16 -4 -7 2 -5 12 3 15 12 17 12 10 1 -6 -11 -4 -13 11
-7 31 13 48 14 61 4 7 -5 14 -5 18 2 3 6 11 8 16 5 5 -4 17 -8 26 -10 10 -2
26 -6 36 -10 12 -5 16 -3 14 6 -2 8 -2 11 0 6 3 -4 10 -4 15 -1 7 4 8 2 4 -4
-4 -7 -3 -12 3 -12 5 0 12 6 14 13 4 9 6 8 6 -2 1 -8 -6 -19 -15 -26 -15 -11
-15 -12 2 -10 11 0 24 4 30 8 6 3 14 3 18 0 4 -4 18 -8 31 -9 20 -1 22 2 15
17 -7 12 -5 19 6 23 8 3 12 2 9 -4 -3 -5 -1 -18 5 -27 8 -13 10 -13 7 -3 -3 9
2 25 10 35 14 18 15 18 9 2 -5 -15 -2 -17 13 -12 11 3 22 1 26 -4 4 -7 -1 -8
-12 -4 -15 6 -16 5 -3 -9 11 -11 17 -12 22 -4 5 7 8 6 8 -4 0 -13 1 -13 10 0
5 8 10 10 10 5 0 -6 27 -10 60 -11 57 0 60 1 56 22 -4 18 -1 22 17 19 11 -3
27 1 34 7 11 9 13 8 11 -2 -2 -7 3 -15 11 -18 8 -3 11 0 7 6 -4 7 2 9 15 7 13
-3 29 1 36 7 8 6 13 7 12 2 -4 -21 2 -24 22 -13 15 8 19 8 15 0 -4 -6 -3 -18
2 -27 8 -15 10 -15 15 0 5 12 3 15 -6 10 -7 -5 -6 0 3 12 22 29 24 30 17 12
-7 -21 3 -23 23 -6 8 7 5 1 -8 -13 -17 -19 -19 -26 -8 -26 8 0 13 4 11 8 -3 4
2 9 10 13 8 3 19 -3 24 -12 13 -22 14 -7 2 17 -7 13 -6 18 4 18 8 0 12 -4 9
-8 -2 -4 0 -10 6 -14 6 -4 8 -10 6 -14 -3 -4 6 -7 19 -7 20 0 22 3 14 18 -12
23 -23 23 -14 1 5 -14 3 -15 -5 -6 -9 8 -9 16 -1 30 6 11 11 13 11 4 0 -8 6
-11 16 -7 8 3 12 2 9 -4 -3 -5 -2 -17 3 -26 8 -15 10 -15 15 0 5 12 3 15 -6
10 -7 -5 -6 0 3 12 22 29 24 30 17 12 -7 -21 3 -23 23 -5 8 6 5 0 -8 -14 -17
-19 -19 -26 -8 -26 8 0 13 4 11 8 -3 4 2 9 10 13 8 3 19 -3 24 -12 13 -22 14
-7 2 17 -7 13 -6 18 4 18 8 0 12 -4 9 -8 -2 -4 0 -10 6 -14 6 -4 8 -10 6 -14
-3 -4 4 -7 14 -8 13 -1 18 5 17 18 -1 10 -5 19 -10 19 -5 0 -6 -8 -2 -18 4
-12 3 -14 -5 -6 -14 14 -2 46 14 37 19 -12 40 -12 54 -1 10 9 12 8 10 -2 -2
-7 3 -15 11 -18 8 -3 11 0 7 6 -4 7 2 9 15 7 13 -3 29 1 36 7 8 6 13 7 12 2
-4 -21 2 -28 11 -14 8 13 10 13 10 -2 0 -13 -8 -16 -39 -13 -33 2 -39 0 -33
-13 4 -10 7 -12 10 -4 2 7 8 12 13 12 6 0 8 -4 4 -9 -3 -6 4 -8 16 -6 13 3 29
-1 36 -7 8 -6 13 -7 11 -2 -3 8 7 16 15 13 1 -1 14 -2 29 -3 23 -2 26 0 18 15
-7 12 -5 19 6 23 8 3 12 2 9 -4 -3 -5 -2 -17 3 -26 8 -15 10 -15 15 0 5 12 3
15 -6 10 -7 -5 -6 0 3 12 22 29 24 30 17 11 -6 -15 -3 -17 12 -12 11 3 22 1
26 -4 3 -6 0 -8 -8 -5 -8 3 -19 -1 -25 -9 -9 -11 -8 -14 3 -14 8 0 12 4 9 9
-3 4 0 8 5 8 6 0 11 -6 11 -12 0 -9 4 -8 10 2 9 13 10 13 10 0 0 -13 1 -13 10
0 5 8 10 10 10 5 0 -6 27 -10 60 -11 57 0 60 1 56 22 -4 18 -1 22 17 19 11 -3
27 1 34 7 11 9 13 8 11 -2 -2 -7 3 -15 11 -18 8 -3 11 0 7 6 -4 7 2 9 15 7 13
-3 29 1 36 7 8 6 13 7 12 2 -4 -21 2 -24 22 -13 15 8 19 8 15 0 -4 -6 -2 -19
4 -28 8 -13 10 -13 7 -3 -3 9 2 25 10 35 12 15 14 16 10 3 -4 -12 -1 -16 14
-15 10 1 19 8 19 17 0 13 2 13 10 0 9 -14 -6 -33 -20 -25 -4 2 -7 -2 -7 -9 0
-7 6 -13 13 -13 7 0 11 4 8 9 -3 4 4 8 15 8 12 0 21 -6 21 -12 0 -7 5 -5 11 4
5 10 15 18 21 18 7 0 7 -4 -1 -13 -8 -10 -7 -14 4 -14 8 0 12 4 9 9 -3 4 0 8
5 8 6 0 11 -6 11 -12 0 -10 3 -9 9 1 6 9 10 10 14 2 3 -7 5 -7 3 1 -2 7 -8 13
-14 13 -7 0 -12 3 -12 8 0 4 3 7 6 6 4 0 11 5 16 13 7 10 8 9 4 -4 -7 -22 7
-23 28 -3 13 14 15 13 13 -4 0 -11 -5 -19 -10 -18 -5 1 -11 -4 -12 -11 -2 -7
-1 -8 2 -2 3 7 10 4 19 -7 13 -17 14 -17 7 1 -4 12 -3 17 4 13 6 -4 10 0 9 9
0 9 7 18 17 19 9 2 15 -1 11 -6 -3 -5 -11 -6 -17 -3 -9 5 -9 3 0 -6 10 -11 15
-11 27 0 9 7 13 17 9 24 -4 7 -1 6 9 -1 8 -7 19 -9 23 -5 5 4 5 1 1 -5 -4 -7
-2 -13 3 -13 6 0 11 8 11 17 0 15 2 14 16 -3 8 -10 13 -14 11 -9 -3 6 6 16 20
22 l25 12 -18 -22 -19 -22 21 18 c22 18 31 72 10 60 -6 -4 -5 1 3 10 11 14 11
17 0 17 -9 0 -10 3 -4 8 6 4 10 14 10 22 0 8 -4 18 -10 22 -6 5 -5 8 3 8 14 0
12 21 -3 32 -6 5 -5 8 3 8 7 0 10 5 6 12 -4 7 -3 8 4 4 7 -4 12 -1 12 8 0 10
7 13 21 11 12 -3 18 -1 15 3 -4 4 -9 5 -10 2 -2 -3 -11 2 -21 10 -11 8 -16 10
-12 3 4 -6 3 -14 -2 -17 -5 -3 -7 8 -6 24 1 17 -1 30 -5 30 -3 0 -7 7 -7 15 0
8 3 12 7 10 4 -3 6 15 5 40 -1 27 2 42 8 38 7 -4 7 1 3 13 -5 10 -9 28 -10 39
0 11 -5 24 -11 28 -6 5 -3 7 8 3 20 -6 22 5 5 22 -7 7 -8 12 -4 12 5 0 2 8 -5
17 -8 9 -9 14 -3 10 17 -10 36 17 27 38 -4 12 -3 16 5 11 6 -3 14 -1 18 5 4 8
3 9 -4 5 -15 -9 -16 6 -2 20 8 8 6 15 -5 24 -17 14 -17 14 -19 -49 -1 -21 -7
-36 -16 -38 -9 -3 -11 -1 -5 4 14 11 15 43 3 66 -7 14 -7 17 1 13 6 -4 9 4 6
24 -2 17 0 28 6 25 5 -4 9 -2 9 4 0 5 -5 13 -10 16 -6 4 -8 10 -5 15 3 5 1 12
-5 15 -7 4 -8 11 -1 18 14 18 14 29 -1 39 -10 7 -9 8 5 4 20 -6 22 5 5 22 -7
7 -8 12 -4 12 5 0 2 8 -5 17 -8 9 -9 14 -3 10 17 -10 36 17 27 38 -4 12 -3 16
5 11 6 -3 14 -1 18 5 4 8 3 9 -4 5 -15 -9 -16 6 -2 20 8 8 6 15 -5 24 -17 14
-17 14 -19 -49 -1 -21 -7 -36 -16 -38 -9 -3 -11 -1 -5 4 14 11 15 43 3 66 -7
14 -7 17 1 13 6 -4 9 4 6 24 -2 17 0 28 6 25 5 -4 9 -2 9 4 0 5 -5 13 -10 16
-6 4 -8 10 -5 15 3 5 1 12 -5 15 -7 4 -8 11 -1 18 14 18 14 29 -1 39 -10 7 -9
8 5 4 20 -6 22 5 5 22 -7 7 -8 12 -4 12 5 0 2 8 -5 17 -8 9 -9 14 -3 10 17
-10 36 17 27 38 -4 12 -3 16 5 11 6 -3 14 -1 18 5 4 8 3 9 -4 5 -15 -9 -16 6
-2 20 8 8 6 15 -5 24 -17 14 -17 14 -19 -49 -1 -21 -7 -36 -16 -38 -9 -3 -11
-1 -5 4 14 11 15 43 3 66 -7 14 -7 17 1 13 6 -4 9 4 6 24 -2 17 0 28 6 25 5
-4 9 -2 9 4 0 5 -5 13 -10 16 -6 4 -8 10 -5 15 3 5 1 11 -5 15 -6 4 -7 12 -3
18 11 17 10 31 -2 40 -6 5 -3 7 8 3 20 -6 22 5 5 22 -7 7 -8 12 -4 12 5 0 2 8
-5 17 -8 9 -9 14 -3 10 17 -10 36 17 27 38 -4 12 -3 16 5 11 6 -3 14 -1 18 5
4 8 3 9 -4 5 -15 -9 -16 6 -2 20 8 8 6 15 -5 24 -17 14 -17 14 -19 -49 -1 -21
-7 -36 -16 -38 -9 -3 -11 -1 -5 4 14 11 15 43 3 66 -7 14 -7 17 1 13 6 -4 9 4
6 24 -2 17 0 28 6 25 13 -9 11 9 -3 23 -7 7 -8 12 -4 12 5 0 3 6 -3 14 -8 10
-9 16 -1 21 6 3 8 10 5 15 -3 5 -1 11 5 15 5 3 10 11 10 17 0 6 -7 5 -17 -3
-16 -12 -17 -12 -7 1 12 17 12 30 1 48 -5 7 -5 11 0 10 4 -2 19 5 33 15 26 18
20 23 -9 7 -16 -8 -18 -6 -16 20 1 17 -2 30 -9 30 -6 0 -4 5 4 10 12 7 12 12
2 22 -16 16 -15 30 2 26 8 -2 16 2 17 7 1 6 9 15 17 21 13 9 12 11 -2 11 -15
0 -20 -10 -17 -30 1 -5 -3 -6 -9 -2 -6 3 -7 11 -4 17 4 6 1 14 -6 18 -8 5 -7
9 5 13 10 4 14 3 9 -4 -4 -7 0 -7 15 1 18 9 21 30 5 30 -3 0 -3 -4 1 -9 3 -6
-4 -9 -15 -8 -11 1 -21 6 -21 12 -3 23 4 50 13 56 5 3 2 9 -7 13 -9 3 -13 10
-10 16 4 6 12 7 18 3 7 -4 6 1 -2 11 -8 9 -21 14 -29 11 -12 -4 -12 -3 -3 9 9
11 9 16 0 22 -7 4 -10 3 -7 -2 3 -5 1 -13 -6 -19 -14 -13 -48 -16 -40 -4 8 13
-10 11 -25 -3 -11 -10 -13 -10 -7 0 9 14 -10 17 -19 2 -4 -6 -11 -7 -17 -4 -7
4 -2 14 13 26 22 18 22 19 2 9 -12 -6 -27 -19 -32 -29 -6 -9 -11 -11 -11 -5 0
15 -21 13 -32 -2 -5 -7 -8 -7 -8 0 0 6 -18 11 -40 12 -28 2 -39 -1 -34 -8 4
-8 0 -7 -15 0 -16 9 -21 9 -21 -1 0 -8 -3 -9 -8 -3 -11 16 -46 19 -36 3 4 -7
-2 -5 -13 5 -16 14 -23 15 -29 6 -5 -8 -3 -10 6 -4 9 5 11 4 6 -3 -4 -7 -14
-9 -24 -4 -22 10 -43 9 -61 -2 -9 -6 -12 -5 -8 1 4 6 -3 19 -14 29 -11 10 -20
14 -19 9 5 -21 -1 -33 -16 -39 -8 -3 -12 -2 -9 4 3 6 1 10 -6 10 -7 0 -21 8
-32 18 -11 9 -17 11 -13 5 4 -7 2 -13 -4 -13 -6 0 -8 -5 -4 -12 4 -6 3 -8 -4
-4 -6 3 -14 2 -17 -4 -5 -8 -11 -8 -20 0 -9 8 -15 8 -20 0 -4 -7 -12 -7 -25 0
-13 7 -21 7 -25 0 -4 -6 -12 -7 -18 -3 -7 4 -19 8 -27 8 -8 0 -21 4 -27 8 -9
6 -11 3 -7 -10 3 -11 2 -14 -3 -8 -9 12 -52 13 -70 2 -6 -4 -15 -3 -18 3 -5 7
-11 8 -19 1 -7 -6 -17 -6 -26 -1 -9 6 -20 4 -29 -3 -10 -8 -12 -8 -8 -1 4 6
-3 20 -14 30 -11 10 -20 14 -19 9 5 -21 -1 -33 -17 -39 -10 -4 -14 -4 -10 0 7
7 -1 13 -54 42 -22 12 -22 12 -6 -1 12 -10 14 -17 7 -22 -5 -3 -7 -11 -4 -17
4 -7 0 -7 -12 0 -26 14 -75 12 -67 -2 3 -6 -4 -2 -16 9 -12 11 -22 15 -21 10
5 -21 -1 -27 -14 -16 -10 8 -16 9 -21 1 -4 -6 -13 -7 -23 -1 -25 13 -73 11
-65 -3 3 -6 -4 -2 -17 9 -13 11 -20 15 -17 8 8 -13 -9 -28 -17 -15 -6 10 -48
8 -66 -3 -8 -5 -11 -4 -7 2 4 6 -3 19 -14 29 -11 10 -20 14 -19 9 5 -21 -1
-33 -16 -39 -8 -3 -12 -2 -9 4 3 6 1 10 -6 10 -7 0 -21 8 -32 18 -11 9 -17 11
-13 5 4 -7 2 -13 -4 -13 -6 0 -8 -5 -4 -12 4 -6 3 -8 -4 -4 -6 3 -14 2 -17 -4
-5 -8 -11 -8 -20 0 -9 7 -15 8 -19 1 -4 -6 -13 -8 -21 -5 -8 4 -12 10 -9 16 3
5 12 7 20 4 9 -3 11 0 7 11 -5 12 -3 14 7 8 9 -5 11 -4 6 3 -10 16 -11 16 -42
-17z m113 -23 c-3 -8 -6 -5 -6 6 -1 11 2 17 5 13 3 -3 4 -12 1 -19z m480 0
c-3 -8 -6 -5 -6 6 -1 11 2 17 5 13 3 -3 4 -12 1 -19z m480 0 c-3 -8 -6 -5 -6
6 -1 11 2 17 5 13 3 -3 4 -12 1 -19z m-1247 2 c0 -5 -2 -10 -4 -10 -3 0 -8 5
-11 10 -3 6 -1 10 4 10 6 0 11 -4 11 -10z m1870 -554 c0 -3 -4 -8 -10 -11 -5
-3 -10 -1 -10 4 0 6 5 11 10 11 6 0 10 -2 10 -4z m0 -320 c0 -3 -4 -8 -10 -11
-5 -3 -10 -1 -10 4 0 6 5 11 10 11 6 0 10 -2 10 -4z m-2159 -44 c-4 -9 -7 -25
-6 -34 2 -10 0 -18 -5 -18 -13 0 -20 29 -9 36 6 3 8 12 5 19 -6 15 3 27 15 19
5 -3 5 -13 0 -22z m2159 -276 c0 -3 -4 -8 -10 -11 -5 -3 -10 -1 -10 4 0 6 5
11 10 11 6 0 10 -2 10 -4z m0 -320 c0 -3 -4 -8 -10 -11 -5 -3 -10 -1 -10 4 0
6 5 11 10 11 6 0 10 -2 10 -4z m-1853 -602 c-3 -4 -2 -15 3 -24 7 -14 6 -18
-5 -16 -8 1 -18 5 -21 9 -4 4 -14 1 -23 -6 -14 -10 -14 -10 -4 4 7 9 9 20 5
25 -4 4 0 3 9 -4 14 -10 18 -10 23 3 3 8 9 15 12 15 4 0 4 -3 1 -6z m172 -10
c6 4 11 0 11 -9 0 -9 5 -13 10 -10 6 4 7 12 4 18 -5 9 -3 9 6 0 10 -10 16 -10
24 0 6 7 10 10 9 8 -1 -2 2 -11 7 -21 8 -15 3 -16 -43 -13 -73 4 -76 5 -81 19
-3 8 0 11 10 7 8 -3 14 1 14 8 0 12 2 12 9 0 5 -7 14 -10 20 -7z m788 10 c-3
-4 -2 -15 3 -24 7 -14 6 -18 -5 -16 -8 1 -18 5 -21 9 -4 4 -14 1 -23 -6 -14
-10 -14 -10 -4 4 7 9 9 20 5 25 -4 4 0 3 9 -4 14 -10 18 -10 23 3 3 8 9 15 12
15 4 0 4 -3 1 -6z m172 -10 c6 4 11 0 11 -9 0 -9 5 -13 10 -10 6 4 7 12 4 18
-5 9 -3 9 6 0 10 -10 16 -10 24 0 6 7 10 10 9 8 -1 -2 2 -11 7 -21 8 -15 3
-16 -43 -13 -73 4 -76 5 -81 19 -3 8 0 11 10 7 8 -3 14 1 14 8 0 12 2 12 9 0
5 -7 14 -10 20 -7z m385 -9 c-4 -8 -11 -12 -16 -9 -6 4 -5 10 3 15 19 12 19
11 13 -6z"/>
<path d="M766 2391 c-10 -11 -13 -21 -7 -25 5 -4 12 -2 16 4 3 5 3 10 -2 10
-4 0 -1 4 7 10 8 5 12 11 9 15 -3 3 -14 -3 -23 -14z"/>
<path d="M854 2399 c-3 -6 -1 -16 4 -21 8 -8 11 -5 9 11 -1 24 -3 25 -13 10z"/>
<path d="M931 2392 c-8 -15 -6 -18 13 -18 12 0 23 6 23 13 0 10 -3 10 -16 0
-12 -10 -14 -9 -8 6 8 22 0 22 -12 -1z"/>
<path d="M983 2388 c-1 -10 2 -20 8 -23 5 -3 6 1 3 9 -4 11 0 16 10 16 9 0 16
4 16 8 0 16 -36 7 -37 -10z"/>
<path d="M1065 2395 c34 -28 53 -36 60 -25 4 6 3 9 -2 8 -4 -1 -24 6 -43 15
-29 15 -32 15 -15 2z"/>
<path d="M1107 2399 c7 -7 15 -10 18 -7 3 3 -2 9 -12 12 -14 6 -15 5 -6 -5z"/>
<path d="M1143 2388 c-1 -10 2 -20 8 -23 5 -3 6 1 3 9 -4 11 0 16 10 16 9 0
16 4 16 8 0 16 -36 7 -37 -10z"/>
<path d="M1230 2391 c24 -20 40 -26 40 -16 0 2 -15 12 -32 20 l-33 16 25 -20z"/>
<path d="M1334 2399 c-3 -6 -1 -16 4 -21 8 -8 11 -5 9 11 -1 24 -3 25 -13 10z"/>
<path d="M1410 2391 c-9 -18 -7 -19 16 -15 18 3 23 1 18 -7 -4 -8 -3 -9 4 -5
6 4 8 14 5 23 -5 12 -3 14 7 8 9 -6 11 -4 6 4 -6 9 -13 8 -29 -6 -19 -17 -20
-17 -14 0 9 23 0 22 -13 -2z"/>
<path d="M1486 2391 c-10 -11 -13 -21 -7 -25 5 -4 12 -2 16 4 3 5 3 10 -2 10
-4 0 -1 4 7 10 8 5 12 11 9 15 -3 3 -14 -3 -23 -14z"/>
<path d="M1543 2385 c-1 -11 1 -14 4 -7 3 6 11 12 19 12 8 0 14 4 14 8 0 4 -8
8 -18 8 -11 0 -18 -8 -19 -21z"/>
<path d="M1624 2390 c3 -29 18 -34 22 -7 1 9 -1 15 -6 12 -5 -3 -11 1 -14 7
-2 7 -3 2 -2 -12z"/>
<path d="M1678 2396 c-23 -17 -23 -27 -1 -19 12 5 14 3 8 -7 -5 -8 -4 -11 3
-6 6 4 8 14 5 23 -5 12 -3 14 7 8 9 -5 11 -4 6 3 -9 14 -7 14 -28 -2z"/>
<path d="M1726 2391 c-10 -11 -13 -21 -7 -25 5 -4 12 -2 16 4 3 5 3 10 -2 10
-4 0 -1 4 7 10 8 5 12 11 9 15 -3 3 -14 -3 -23 -14z"/>
<path d="M1814 2399 c-3 -6 -1 -16 4 -21 8 -8 11 -5 9 11 -1 24 -3 25 -13 10z"/>
<path d="M1890 2391 c-10 -20 2 -24 28 -8 7 5 12 4 12 -2 0 -6 5 -11 11 -11 8
0 8 5 -1 15 -10 12 -16 13 -28 3 -13 -11 -15 -10 -9 5 9 23 0 22 -13 -2z"/>
<path d="M1946 2398 c3 -4 12 -8 20 -8 8 0 14 4 14 8 0 4 -9 8 -19 8 -11 0
-17 -4 -15 -8z"/>
<path d="M1991 2387 c-13 -21 -12 -21 5 -5 10 10 16 20 13 22 -3 3 -11 -5 -18
-17z"/>
<path d="M2069 2398 c13 -17 41 -14 41 4 0 7 -5 6 -13 -1 -10 -8 -17 -7 -27 2
-12 10 -12 9 -1 -5z"/>
<path d="M2123 2392 c-8 -14 -8 -19 1 -19 7 0 13 9 13 19 1 10 1 18 0 18 -1 0
-7 -8 -14 -18z"/>
<path d="M2179 2408 c-7 -23 -4 -35 7 -35 9 0 11 4 4 12 -5 7 -7 15 -3 18 3 4
3 7 0 7 -4 0 -7 -1 -8 -2z"/>
<path d="M2265 2399 c-4 -6 -5 -12 -2 -15 2 -3 7 2 10 11 7 17 1 20 -8 4z"/>
<path d="M395 2390 c-4 -6 -4 -14 -1 -17 3 -4 6 0 6 7 0 10 5 9 18 -3 18 -16
32 -14 32 6 0 5 -6 7 -14 4 -7 -3 -18 -1 -24 5 -6 6 -12 6 -17 -2z"/>
<path d="M547 2387 c-3 -7 5 -13 19 -13 29 -2 30 2 5 15 -14 8 -20 7 -24 -2z"/>
<path d="M2022 2387 c-8 -9 -3 -13 19 -13 34 -2 36 2 10 15 -13 8 -22 7 -29
-2z"/>
<path d="M626 2382 c-3 -5 1 -9 9 -9 8 0 15 4 15 9 0 4 -4 8 -9 8 -6 0 -12 -4
-15 -8z"/>
<path d="M1026 2382 c-2 -4 4 -8 14 -8 10 0 16 4 14 8 -3 4 -9 8 -14 8 -5 0
-11 -4 -14 -8z"/>
<path d="M1186 2382 c-2 -4 4 -8 14 -8 10 0 16 4 14 8 -3 4 -9 8 -14 8 -5 0
-11 -4 -14 -8z"/>
<path d="M1586 2382 c-3 -5 1 -9 9 -9 8 0 15 4 15 9 0 4 -4 8 -9 8 -6 0 -12
-4 -15 -8z"/>
<path d="M2295 2380 c3 -5 8 -10 11 -10 2 0 4 5 4 10 0 6 -5 10 -11 10 -5 0
-7 -4 -4 -10z"/>
<path d="M210 2280 c0 -5 5 -10 10 -10 6 0 10 5 10 10 0 6 -4 10 -10 10 -5 0
-10 -4 -10 -10z"/>
<path d="M2365 2260 c-3 -5 -2 -10 4 -10 5 0 13 5 16 10 3 6 2 10 -4 10 -5 0
-13 -4 -16 -10z"/>
<path d="M200 2201 c13 -26 13 -34 -2 -25 -7 4 -8 3 -4 -4 4 -6 13 -9 21 -6
12 5 12 9 -2 30 -18 29 -28 32 -13 5z"/>
<path d="M2376 2139 c16 -18 19 -33 4 -24 -13 8 -8 -18 5 -27 6 -4 15 -8 20
-8 6 0 4 4 -4 9 -12 8 -12 12 -2 24 9 12 9 16 -1 20 -10 4 -10 7 1 15 11 8 8
10 -12 9 -23 -2 -24 -4 -11 -18z"/>
<path d="M214 2085 c-4 -8 -9 -13 -13 -10 -4 2 -8 -2 -8 -10 0 -10 4 -12 12
-5 7 6 16 5 25 -3 12 -10 12 -9 1 5 -7 9 -10 22 -6 28 3 5 4 10 0 10 -3 0 -8
-7 -11 -15z"/>
<path d="M2385 2032 c-17 -12 -12 -35 9 -38 14 -2 16 0 7 9 -14 14 -14 30 1
21 7 -4 8 -3 4 4 -8 14 -8 14 -21 4z"/>
<path d="M210 1999 c0 -5 -4 -8 -8 -5 -5 3 -9 -1 -9 -9 0 -10 4 -12 12 -5 7 5
15 7 19 3 4 -4 4 0 0 10 -7 19 -14 22 -14 6z"/>
<path d="M2380 1965 c-9 -10 -9 -15 -1 -15 6 0 11 5 11 11 0 5 5 7 12 3 7 -4
8 -3 4 4 -9 15 -11 15 -26 -3z"/>
<path d="M2395 1940 c-4 -6 -10 -8 -15 -5 -5 3 -11 1 -14 -4 -4 -5 -2 -12 4
-16 6 -4 8 -10 5 -15 -3 -5 -1 -11 4 -14 12 -8 25 12 27 42 1 24 -2 27 -11 12z
m1 -26 c-1 -8 -6 -17 -12 -21 -5 -4 -6 -4 -2 1 4 5 3 14 -2 21 -7 8 -5 12 4
12 8 0 13 -6 12 -13z"/>
<path d="M191 1897 c2 -2 11 -8 20 -15 12 -9 16 -9 16 1 0 7 -9 14 -20 14 -11
1 -18 1 -16 0z"/>
<path d="M2380 1855 c-7 -9 -10 -18 -6 -22 3 -3 6 -1 6 5 0 6 8 9 18 6 13 -5
14 -4 3 4 -11 8 -11 10 0 15 8 3 9 6 3 6 -6 1 -17 -6 -24 -14z"/>
<path d="M2390 1717 c-27 -21 -17 -46 13 -34 9 4 9 6 0 6 -7 1 -13 6 -13 12 0
5 4 8 8 5 5 -3 9 1 9 9 0 8 -1 15 -1 15 -1 0 -8 -6 -16 -13z"/>
<path d="M2380 1645 c-9 -10 -9 -15 -1 -15 6 0 11 5 11 11 0 5 5 7 12 3 7 -4
8 -3 4 4 -9 15 -11 15 -26 -3z"/>
<path d="M2395 1620 c-4 -6 -10 -8 -15 -5 -5 3 -11 1 -14 -4 -4 -5 -2 -12 4
-16 6 -4 8 -10 5 -15 -3 -5 -1 -11 4 -14 12 -8 25 12 27 42 1 24 -2 27 -11 12z
m1 -26 c-1 -8 -6 -17 -12 -21 -5 -4 -6 -4 -2 1 4 5 3 14 -2 21 -7 8 -5 12 4
12 8 0 13 -6 12 -13z"/>
<path d="M2380 1535 c-7 -9 -10 -18 -6 -22 3 -3 6 -1 6 5 0 6 8 9 18 6 13 -5
14 -4 3 4 -11 8 -11 10 0 15 8 3 9 6 3 6 -6 1 -17 -6 -24 -14z"/>
<path d="M210 1519 c0 -5 -4 -8 -8 -5 -5 3 -9 -1 -9 -9 0 -10 4 -12 12 -5 7 5
15 7 19 3 4 -4 4 0 0 10 -7 19 -14 22 -14 6z"/>
<path d="M2390 1397 c-27 -21 -17 -46 13 -34 9 4 9 6 0 6 -7 1 -13 6 -13 12 0
5 4 8 8 5 5 -3 9 1 9 9 0 8 -1 15 -1 15 -1 0 -8 -6 -16 -13z"/>
<path d="M2380 1325 c-9 -10 -9 -15 -1 -15 6 0 11 5 11 11 0 5 5 7 12 3 7 -4
8 -3 4 4 -9 15 -11 15 -26 -3z"/>
<path d="M2395 1300 c-4 -6 -10 -8 -15 -5 -5 3 -11 1 -14 -4 -4 -5 -2 -12 4
-16 6 -4 8 -10 5 -15 -3 -5 -1 -11 4 -14 12 -8 25 12 27 42 1 24 -2 27 -11 12z
m1 -26 c-1 -8 -6 -17 -12 -21 -5 -4 -6 -4 -2 1 4 5 3 14 -2 21 -7 8 -5 12 4
12 8 0 13 -6 12 -13z"/>
<path d="M198 1293 c9 -4 10 -8 2 -18 -11 -13 -8 -13 29 -6 9 2 -23 31 -33 30
-6 0 -6 -3 2 -6z"/>
<path d="M190 1239 c0 -5 5 -7 10 -4 6 3 10 8 10 11 0 2 -4 4 -10 4 -5 0 -10
-5 -10 -11z"/>
<path d="M2380 1215 c-7 -9 -10 -18 -6 -22 3 -3 6 -1 6 5 0 6 8 9 18 6 13 -5
14 -4 3 4 -11 8 -11 10 0 15 8 3 9 6 3 6 -6 1 -17 -6 -24 -14z"/>
<path d="M2390 1077 c-27 -21 -17 -46 13 -34 9 4 9 6 0 6 -7 1 -13 6 -13 12 0
5 4 8 8 5 5 -3 9 1 9 9 0 8 -1 15 -1 15 -1 0 -8 -6 -16 -13z"/>
<path d="M210 1039 c0 -5 -4 -8 -8 -5 -5 3 -9 -1 -9 -9 0 -10 4 -12 12 -5 7 5
15 7 19 3 4 -4 4 0 0 10 -7 19 -14 22 -14 6z"/>
<path d="M2380 1005 c-9 -10 -9 -15 -1 -15 6 0 11 5 11 11 0 5 5 7 12 3 7 -4
8 -3 4 4 -9 15 -11 15 -26 -3z"/>
<path d="M2395 980 c-4 -6 -10 -8 -15 -5 -5 3 -11 1 -14 -4 -4 -5 -2 -12 4
-16 6 -4 8 -10 5 -15 -3 -5 -1 -11 4 -14 12 -8 25 12 27 42 1 24 -2 27 -11 12z
m1 -26 c-1 -8 -6 -17 -12 -21 -5 -4 -6 -4 -2 1 4 5 3 14 -2 21 -7 8 -5 12 4
12 8 0 13 -6 12 -13z"/>
<path d="M191 937 c2 -2 11 -8 20 -15 12 -9 16 -9 16 1 0 7 -9 14 -20 14 -11
1 -18 1 -16 0z"/>
<path d="M2380 895 c-7 -9 -10 -18 -6 -22 3 -3 6 -1 6 5 0 6 8 9 18 6 13 -5
14 -4 3 4 -11 8 -11 10 0 15 8 3 9 6 3 6 -6 1 -17 -6 -24 -14z"/>
<path d="M2390 757 c-27 -21 -17 -46 13 -34 9 4 9 6 0 6 -7 1 -13 6 -13 12 0
5 4 8 8 5 5 -3 9 1 9 9 0 8 -1 15 -1 15 -1 0 -8 -6 -16 -13z"/>
<path d="M2381 686 c-9 -11 -8 -15 5 -20 9 -4 19 -4 22 -1 3 3 0 5 -6 5 -7 0
-12 5 -12 11 0 5 5 7 12 3 7 -4 8 -3 4 4 -9 15 -11 15 -25 -2z"/>
<path d="M2376 647 c3 -10 9 -15 12 -12 3 3 0 11 -7 18 -10 9 -11 8 -5 -6z"/>
<path d="M210 639 c0 -5 -6 -7 -12 -3 -7 4 -9 3 -5 -1 13 -15 36 -14 30 1 -6
17 -13 18 -13 3z"/>
<path d="M2391 616 c-17 -21 -22 -58 -10 -73 8 -9 8 -13 1 -13 -15 0 -11 -38
5 -44 7 -3 15 0 19 6 4 6 3 8 -3 5 -6 -4 -14 0 -17 9 -3 8 -2 12 3 9 17 -10
21 12 6 25 -21 18 -19 35 3 19 15 -13 16 -12 3 4 -11 14 -11 17 0 17 11 0 11
2 0 9 -12 8 -12 12 -2 25 8 9 11 16 8 16 -2 0 -10 -6 -16 -14z"/>
<path d="M202 595 c-7 -8 -9 -15 -4 -15 5 0 15 7 22 15 16 19 -1 19 -18 0z"/>
<path d="M210 561 c0 -6 4 -13 10 -16 6 -3 7 1 4 9 -7 18 -14 21 -14 7z"/>
<path d="M198 531 c17 -11 17 -21 0 -32 -8 -5 -9 -9 -2 -9 6 0 17 7 25 16 10
13 10 17 -2 25 -8 5 -18 9 -24 9 -5 0 -4 -4 3 -9z"/>
<path d="M200 470 c-8 -5 -10 -10 -3 -10 12 0 12 -17 0 -37 -5 -8 -4 -13 2
-13 6 0 11 5 11 11 0 5 6 7 13 3 9 -6 9 -4 1 7 -6 8 -10 22 -9 32 4 20 4 20
-15 7z"/>
<path d="M2390 430 c0 -5 5 -10 11 -10 5 0 7 5 4 10 -3 6 -8 10 -11 10 -2 0
-4 -4 -4 -10z"/>
<path d="M2374 394 c0 -13 4 -24 9 -24 5 0 4 -6 -2 -13 -8 -10 -7 -14 3 -14 9
0 13 8 10 21 -2 11 1 23 6 26 5 3 1 11 -8 17 -15 9 -18 7 -18 -13z"/>
<path d="M207 359 c7 -7 15 -10 18 -7 3 3 -2 9 -12 12 -14 6 -15 5 -6 -5z"/>
<path d="M202 331 c18 -25 14 -55 -6 -44 -7 4 -6 1 1 -7 16 -17 22 -11 27 29
2 17 1 29 -2 26 -3 -2 -12 1 -21 8 -13 10 -12 8 1 -12z"/>
<path d="M2376 235 c-9 -26 -7 -32 5 -12 6 10 9 21 6 23 -2 3 -7 -2 -11 -11z"/>
<path d="M289 229 c-10 -7 -6 -8 13 -5 28 5 53 -14 40 -30 -4 -4 1 -2 11 6 14
10 20 11 26 2 4 -7 11 -4 20 11 8 12 10 19 6 15 -4 -4 -16 -3 -26 2 -12 7 -20
7 -24 0 -4 -6 -12 -7 -18 -3 -18 11 -33 12 -48 2z"/>
<path d="M815 220 c-2 -3 0 -12 6 -20 6 -10 9 -11 9 -2 0 6 5 12 11 12 5 0 8
-4 5 -8 -2 -4 6 -8 20 -8 13 0 24 5 24 11 0 5 5 3 10 -5 6 -10 10 -11 10 -2 0
6 5 12 11 12 5 0 8 -4 5 -8 -2 -4 8 -8 23 -7 19 0 27 4 24 12 -3 7 -9 11 -13
8 -5 -3 -11 -1 -14 3 -6 10 -36 9 -54 -2 -6 -4 -18 -4 -24 0 -16 10 -48 13
-53 4z"/>
<path d="M1295 220 c-2 -3 0 -12 6 -20 6 -10 9 -11 9 -2 0 6 5 12 11 12 5 0 8
-4 5 -8 -2 -4 6 -8 20 -8 13 0 24 3 24 7 0 15 -67 32 -75 19z"/>
<path d="M1775 220 c-2 -3 0 -12 6 -20 6 -10 9 -11 9 -2 0 6 5 12 11 12 5 0 8
-4 5 -8 -2 -4 6 -8 20 -8 13 0 24 5 24 11 0 5 5 3 10 -5 6 -10 10 -11 10 -2 0
6 5 12 11 12 5 0 8 -4 5 -8 -2 -4 8 -8 23 -7 19 0 27 4 24 12 -3 7 -9 11 -13
8 -5 -3 -11 -1 -14 3 -6 10 -36 9 -54 -2 -6 -4 -18 -4 -24 0 -16 10 -48 13
-53 4z"/>
<path d="M2245 220 c-3 -5 -1 -10 4 -10 6 0 11 5 11 10 0 6 -2 10 -4 10 -3 0
-8 -4 -11 -10z"/>
<path d="M410 205 c-6 -7 -1 -11 15 -11 13 0 26 5 29 11 2 6 -5 11 -16 11 -10
0 -23 -5 -28 -11z"/>
<path d="M606 207 c3 -10 9 -15 12 -12 3 3 0 11 -7 18 -10 9 -11 8 -5 -6z"/>
<path d="M1966 207 c3 -10 9 -15 12 -12 3 3 0 11 -7 18 -10 9 -11 8 -5 -6z"/>
<path d="M295 200 c3 -5 8 -10 11 -10 2 0 4 5 4 10 0 6 -5 10 -11 10 -5 0 -7
-4 -4 -10z"/>
<path d="M2290 199 c0 -5 5 -7 10 -4 6 3 10 8 10 11 0 2 -4 4 -10 4 -5 0 -10
-5 -10 -11z"/>
</g>
</svg>
