<?xml version="1.0" standalone="no"?>
<!DOCTYPE svg PUBLIC "-//W3C//DTD SVG 20010904//EN"
 "http://www.w3.org/TR/2001/REC-SVG-20010904/DTD/svg10.dtd">
<svg version="1.0" xmlns="http://www.w3.org/2000/svg"
 width="256.000000pt" height="256.000000pt" viewBox="0 0 256.000000 256.000000"
 preserveAspectRatio="xMidYMid meet">
<metadata>
Created by potrace 1.11, written by Peter Selinger 2001-2013
</metadata>
<g transform="translate(0.000000,256.000000) scale(0.100000,-0.100000)"
fill="#000000" stroke="none">
<path d="M1856 2313 c-4 -5 -17 -9 -29 -10 -12 -1 -44 -4 -72 -7 -27 -3 -75
-8 -105 -11 -30 -3 -73 -7 -95 -10 -22 -2 -65 -7 -95 -10 -30 -3 -74 -8 -98
-11 -23 -3 -64 -7 -90 -9 -26 -3 -63 -7 -82 -9 -19 -3 -66 -7 -105 -10 -38 -4
-88 -9 -110 -11 -48 -6 -122 -14 -190 -20 -27 -2 -66 -7 -85 -10 -19 -3 -66
-8 -105 -11 -127 -9 -190 -25 -229 -55 -46 -36 -51 -55 -61 -214 -3 -55 -8
-134 -11 -175 -2 -41 -7 -113 -9 -160 -3 -47 -8 -134 -11 -195 -4 -60 -7 -134
-8 -162 -1 -29 -3 -53 -6 -53 -3 0 -5 -30 -6 -68 -1 -59 -6 -155 -19 -352 -2
-30 -4 -79 -6 -108 -1 -29 -6 -55 -11 -58 -5 -3 -4 -12 3 -20 6 -8 9 -17 6
-21 -4 -3 -2 -12 4 -20 6 -7 9 -13 5 -13 -13 0 34 -76 66 -107 46 -43 100 -64
183 -69 39 -2 106 -6 150 -8 44 -3 121 -7 170 -10 50 -3 131 -8 180 -12 90 -6
152 -9 320 -19 50 -3 126 -7 170 -10 44 -3 116 -7 160 -10 303 -18 357 -22
365 -25 14 -6 36 -4 47 3 6 4 14 3 18 -3 5 -8 11 -8 21 1 8 6 14 9 14 6 0 -7
63 13 70 22 3 4 17 14 33 24 33 21 74 81 82 122 7 34 10 64 19 215 6 100 10
152 21 335 3 44 7 116 10 160 2 44 7 130 11 190 3 61 7 128 8 150 1 23 6 47
10 54 5 8 3 17 -5 22 -10 6 -11 9 -1 9 8 0 12 16 12 45 0 25 -5 45 -10 45 -6
0 -10 6 -9 13 5 22 -28 81 -62 114 -60 57 -94 65 -329 78 -52 3 -117 7 -145
10 -27 2 -108 6 -180 10 -71 4 -150 8 -175 10 -25 2 -92 6 -150 9 -58 4 -136
9 -175 11 -38 2 -117 7 -175 10 -58 3 -134 8 -170 10 -36 2 -112 7 -170 10
-108 6 -157 12 -171 21 -5 3 -8 19 -6 37 l3 32 214 -2 c236 -2 944 -12 1278
-18 l212 -3 1 46 c0 26 2 73 3 104 3 71 -13 112 -56 138 -66 40 -186 62 -215
39 -12 -10 -14 -10 -9 -1 8 13 -6 17 -18 5z m179 -1129 c87 -10 149 -108 124
-197 -37 -132 -218 -153 -286 -32 -43 76 -18 168 58 214 33 20 47 22 104 15z"/>
</g>
</svg>
