<svg xmlns="http://www.w3.org/2000/svg" viewBox="0 0 100 88.26"><defs><style>.cls-1{fill:#4170a0;}</style></defs><title>Tokenly_Logo_Icon</title><g id="Layer_2" data-name="Layer 2"><g id="Layer_1-2" data-name="Layer 1"><path class="cls-1" d="M99.18,41.05l-21.92-38A6.17,6.17,0,0,0,71.92,0H53.42V31h17.2V26.11h4l4.19,7.26a2.89,2.89,0,0,1,0,2.94,3,3,0,0,1-2.59,1.51H23.79A3,3,0,0,1,21.2,36.3a2.9,2.9,0,0,1,0-2.94l4.19-7.25h4V31h17.2V0H28.08a6.17,6.17,0,0,0-5.33,3.08L.82,41.05a6.17,6.17,0,0,0,0,6.15l21.92,38a6.17,6.17,0,0,0,5.33,3.08H46.58v-31H29.38v4.88h-4l-4.19-7.26a2.89,2.89,0,0,1,0-2.94,3,3,0,0,1,2.59-1.51H76.21A3,3,0,0,1,78.8,52a2.9,2.9,0,0,1,0,2.94l-4.19,7.25h-4V57.27H53.41v31H71.92a6.17,6.17,0,0,0,5.33-3.08l21.92-38a6.17,6.17,0,0,0,0-6.15Z"/></g></g></svg>