<?xml version="1.0" standalone="no"?>
<!DOCTYPE svg PUBLIC "-//W3C//DTD SVG 20010904//EN"
 "http://www.w3.org/TR/2001/REC-SVG-20010904/DTD/svg10.dtd">
<svg version="1.0" xmlns="http://www.w3.org/2000/svg"
 width="16.000000pt" height="16.000000pt" viewBox="0 0 16.000000 16.000000"
 preserveAspectRatio="xMidYMid meet">
<metadata>
Created by potrace 1.11, written by Peter Selinger 2001-2013
</metadata>
<g transform="translate(0.000000,16.000000) scale(0.002424,-0.002424)"
fill="#000000" stroke="none">
<path d="M2365 6575 c-26 -25 -27 -30 -26 -152 0 -62 -2 -73 -17 -73 -9 -1
-204 -1 -434 -1 -394 1 -417 0 -440 -18 -22 -19 -23 -25 -25 -173 -1 -84 -2
-162 -2 -174 l-1 -21 -417 1 c-230 1 -431 -2 -447 -6 -16 -4 -40 -17 -53 -30
l-23 -21 0 -721 c0 -397 3 -731 6 -743 3 -12 18 -30 33 -40 25 -17 163 -17
2770 -18 2136 0 2750 3 2773 12 16 7 34 25 41 42 9 22 12 200 12 742 -1 676
-2 715 -19 742 -10 15 -30 30 -45 34 -14 3 -215 6 -447 6 l-421 0 1 231 c2
254 -5 300 -51 349 -57 60 27 57 -1418 57 l-1326 0 -24 -25z m2493 -236 c60
-21 72 -57 72 -226 l0 -151 -90 1 c-54 0 -91 5 -93 11 -2 6 -3 50 -2 99 0 54
-3 87 -10 88 -5 0 -482 2 -1060 3 -577 1 -1058 6 -1068 10 -23 11 -47 58 -47
91 0 17 11 38 31 56 l31 29 1103 0 c768 0 1111 -3 1133 -11z m859 -749 c13 -8
27 -28 33 -44 6 -17 10 -167 10 -378 0 -379 -2 -392 -55 -416 -20 -9 -583 -12
-2411 -12 -2227 0 -2388 1 -2415 17 -15 9 -32 28 -37 42 -4 15 -8 190 -7 390
l0 363 30 27 30 26 2400 0 c2073 -1 2403 -3 2422 -15z"/>
<path d="M1245 5350 c-8 -14 -25 -45 -40 -70 -65 -114 -65 -96 -3 -207 l55
-98 117 -1 116 -1 57 99 c53 94 55 101 42 126 -17 33 -91 165 -96 171 -2 3
-56 5 -119 6 -114 1 -116 1 -129 -25z"/>
<path d="M5105 5355 c-7 -11 -33 -56 -57 -101 l-45 -80 39 -70 c21 -38 46 -84
55 -101 l17 -33 116 0 116 0 57 101 57 101 -50 90 c-28 50 -50 94 -50 99 0 11
0 11 -134 13 -99 1 -110 0 -121 -19z"/>
<path d="M628 3930 c-74 -4 -91 -9 -110 -28 l-23 -23 0 -1062 0 -1062 23 -67
c13 -37 41 -93 62 -125 80 -120 93 -129 485 -353 60 -34 1194 -689 1350 -780
88 -51 180 -104 205 -118 25 -14 125 -72 223 -129 234 -136 267 -152 346 -169
111 -23 224 -14 326 26 23 9 274 149 367 205 9 6 45 26 80 46 34 19 162 93
283 163 121 71 236 137 255 148 19 11 168 97 330 191 452 261 647 373 865 498
235 134 317 205 374 323 60 124 58 97 59 1215 1 1103 2 1064 -50 1092 -15 8
-712 12 -2692 13 -1469 0 -2710 -1 -2758 -4z m5080 -359 c7 0 24 -13 37 -27
l25 -27 0 -849 c0 -902 1 -881 -47 -935 -22 -25 -58 -47 -473 -286 -162 -93
-378 -218 -480 -277 -198 -114 -519 -299 -1065 -614 -187 -108 -351 -196 -365
-197 -83 -4 -71 -9 -400 181 -268 155 -310 179 -350 202 -378 217 -1625 938
-1653 956 -21 14 -50 45 -64 69 l-25 43 0 845 c1 465 4 854 7 866 4 11 19 28
34 37 26 16 195 17 2417 16 1314 -1 2395 -2 2402 -3z"/>
<path d="M1261 3340 c-8 -5 -28 -39 -86 -147 l-28 -51 55 -99 55 -98 117 -1
117 -2 29 52 c17 28 42 74 56 101 l26 50 -55 100 -56 100 -111 0 c-61 1 -115
-2 -119 -5z"/>
<path d="M5105 3325 c-42 -67 -95 -169 -95 -184 0 -9 12 -37 28 -62 15 -25 38
-65 51 -91 l24 -45 117 0 117 0 57 100 56 99 -43 78 c-74 136 -58 125 -187
125 -102 1 -113 -1 -125 -20z"/>
</g>
</svg>
