<svg xmlns="http://www.w3.org/2000/svg" viewBox="0 0 86.92 86.92"><defs><style>.cls-1{fill:#4c4a4b;}</style></defs><title>settings</title><g id="Layer_2" data-name="Layer 2"><g id="Layer_1-2" data-name="Layer 1"><path class="cls-1" d="M81.61,37h-4.8a33.79,33.79,0,0,0-5.21-12.6L75,21a5.3,5.3,0,0,0,0-7.5l-1.6-1.6a5.3,5.3,0,0,0-7.5,0L62.5,15.31a33.79,33.79,0,0,0-12.6-5.21V5.3A5.3,5.3,0,0,0,44.59,0H42.33A5.3,5.3,0,0,0,37,5.3v4.8a33.79,33.79,0,0,0-12.6,5.21L21,11.93a5.31,5.31,0,0,0-7.5,0l-1.6,1.6a5.3,5.3,0,0,0,0,7.5l3.39,3.39A33.79,33.79,0,0,0,10.11,37H5.3A5.3,5.3,0,0,0,0,42.33v2.27a5.3,5.3,0,0,0,5.3,5.3h4.8a33.79,33.79,0,0,0,5.21,12.6l-3.39,3.39a5.3,5.3,0,0,0,0,7.5l1.6,1.6A5.31,5.31,0,0,0,21,75l3.39-3.39A33.79,33.79,0,0,0,37,76.81v4.8a5.3,5.3,0,0,0,5.3,5.3h2.27a5.3,5.3,0,0,0,5.3-5.3v-4.8A33.79,33.79,0,0,0,62.5,71.6L65.88,75a5.3,5.3,0,0,0,7.5,0l1.6-1.6a5.3,5.3,0,0,0,0-7.5L71.6,62.5a33.79,33.79,0,0,0,5.21-12.6h4.8a5.3,5.3,0,0,0,5.3-5.3V42.33A5.3,5.3,0,0,0,81.61,37ZM57.94,43.46a15.58,15.58,0,1,1-.81-4.57A14.34,14.34,0,0,1,57.94,43.46Z"/></g></g></svg>