<svg xmlns="http://www.w3.org/2000/svg" viewBox="0 0 91.74 91.74"><defs><style>.cls-1{fill:none;}.cls-2{fill:#4c4a4b;}</style></defs><title>buy_sell</title><g id="Layer_2" data-name="Layer 2"><g id="Layer_1-2" data-name="Layer 1"><rect class="cls-1" width="91.74" height="91.74" rx="4.99" ry="4.99"/><path class="cls-2" d="M16.49,0c3.86,0,7.72,0,11.58,0a5.74,5.74,0,0,1,4.27,1.76L67.46,36.89c2.21,2.21,2.21,4.76,0,7-1.84,1.85-3.68,3.72-5.55,5.54a1.18,1.18,0,0,0-.17,1.78c1.51,2.21,3,4.44,4.45,6.69,1.7,2.6,1.17,5.12-1.43,6.84L37.14,83c-2.81,1.86-5.26,1.35-7.11-1.44Q16.58,61.24,3.11,40.93A6.64,6.64,0,0,1,2,35a3.11,3.11,0,0,0-.72-3.37A5.44,5.44,0,0,1,.07,28.34C0,20.43,0,12.53,0,4.62A4.46,4.46,0,0,1,4.73,0C8.65,0,12.57,0,16.49,0ZM5.1,16.91c0,3.49,0,7,0,10.46a2.56,2.56,0,0,0,.83,2Q22.77,46.1,39.57,62.89c.68.68,1.06.64,1.72,0q10.76-10.82,21.57-21.6c.89-.89.89-.91,0-1.77Q46.1,22.71,29.3,5.9a2.57,2.57,0,0,0-2-.83c-6.94,0-13.88,0-20.82,0-1.32,0-1.4.09-1.41,1.46Q5.1,11.73,5.1,16.91ZM8,38.26l-.29.24c.07.13.13.27.22.4q12.93,19.49,25.85,39c.47.71.86.69,1.51.26Q48.11,69.6,61,61.09c.66-.44.68-.81.26-1.42-1-1.51-2-3.06-3-4.59-.75-1.15-.8-1.16-1.76-.2-4.21,4.2-8.39,8.42-12.63,12.59a6,6,0,0,1-2.25,1.42c-1.89.62-3.43-.16-4.78-1.51Q22.72,53.25,8.62,39.16A7.11,7.11,0,0,1,8,38.26Z" transform="translate(11.31 3.82)"/><path class="cls-2" d="M16.79,13.14a3.69,3.69,0,0,1,.12,7.39,3.69,3.69,0,0,1-.12-7.39Z" transform="translate(11.31 3.82)"/></g></g></svg>